# xmcd
#
# Track frame offsets:
#	150
#	20709
#	36298
#	49707
#	65752
#	82581
#	97060
#	112913
#	126294
#	142589
#	157661
#	178473
#	199182
#	218124
#
# Disc length: 3315 seconds
#
# Revision: 1
# Processed by: cddbd v1.5.2PL0 Copyright (c) Steve Scherf et al.
# Submitted via: audiograbber 1.83.01
#
DISCID=bd0cf10e
DTITLE=Piet Veerman - Sailin' Home
DYEAR=2001
DGENRE=Misc
TTITLE0=Sailin' Home
TTITLE1=Amor
TTITLE2=On My Own
TTITLE3=Crying
TTITLE4=You're My Best Friend
TTITLE5=Let Your Love Flow
TTITLE6=When You Walk In The Room
TTITLE7=Before The Next Teardrop Falls
TTITLE8=Always On My Mind
TTITLE9=Recuerda
TTITLE10=Angel Eyes
TTITLE11=Call Your Name
TTITLE12=Free
TTITLE13=Ave Maria
EXTD=
EXTT0=
EXTT1=
EXTT2=
EXTT3=
EXTT4=
EXTT5=
EXTT6=
EXTT7=
EXTT8=
EXTT9=
EXTT10=
EXTT11=
EXTT12=
EXTT13=
PLAYORDER=
